<svg width="262" height="255" viewBox="0 0 262 255" fill="none" xmlns="http://www.w3.org/2000/svg">
<path d="M250.518 92.8127H208.65V243.439H261.951V104.236C261.946 101.206 260.739 98.302 258.596 96.1606C256.453 94.0193 253.548 92.8153 250.518 92.8127Z" fill="#E7F0FC"/>
<path d="M250.163 241.153C250.301 241.153 250.419 208.471 250.419 168.16C250.419 127.85 250.301 95.1583 250.163 95.1583C250.025 95.1583 249.907 127.84 249.907 168.16C249.907 208.481 250.045 241.153 250.163 241.153Z" fill="#263238"/>
<path d="M261.951 243.134H130.07V259.514H254.115C256.206 259.514 258.212 258.683 259.691 257.205C261.169 255.726 262 253.721 262 251.629V243.094L261.951 243.134Z" fill="#9FC4F1"/>
<path d="M187.303 33.2736L193.019 87.7665C194.005 97.0408 193.522 110.849 178.797 111.716C165.985 111.509 161.49 99.7906 160.593 91.147C160.16 87.0371 159.805 83.6172 159.726 83.2032C159.726 83.2032 145.721 83.3511 143.277 69.7205C142.094 63.1368 140.773 49.3781 139.719 36.9203C139.173 30.4644 141.079 24.0398 145.057 18.9258C149.035 13.8118 154.793 10.3837 161.185 9.324L162.505 9.09732C176.846 7.5401 186.169 18.8644 187.303 33.2736Z" fill="#FFCCB1"/>
<path d="M159.726 83.1737C166.031 82.1082 171.897 79.2553 176.629 74.9539C176.629 74.9539 173.958 85.6475 160.13 86.6922L159.726 83.1737Z" fill="#EDB394"/>
<path d="M163.718 40.3501C164.013 40.5965 165.482 39.1773 167.778 38.9013C170.075 38.6254 171.898 39.6011 172.115 39.2857C172.223 39.1379 171.888 38.6549 171.129 38.2016C170.059 37.6151 168.831 37.3839 167.621 37.5412C166.423 37.6916 165.304 38.2198 164.427 39.0492C163.747 39.6898 163.57 40.2319 163.718 40.3501Z" fill="#263238"/>
<path d="M163.945 45.623C164.02 46.1049 164.281 46.5383 164.671 46.8309C165.061 47.1236 165.55 47.2524 166.034 47.1901C166.271 47.1691 166.501 47.1013 166.712 46.9905C166.922 46.8797 167.108 46.7282 167.26 46.5448C167.411 46.3614 167.524 46.1497 167.593 45.9221C167.662 45.6945 167.685 45.4554 167.66 45.2189C167.582 44.7381 167.321 44.3063 166.931 44.0141C166.542 43.7219 166.054 43.592 165.571 43.6518C165.334 43.6728 165.104 43.7406 164.893 43.8514C164.683 43.9622 164.496 44.1137 164.345 44.2971C164.194 44.4805 164.08 44.6922 164.012 44.9198C163.943 45.1475 163.92 45.3865 163.945 45.623Z" fill="#263238"/>
<path d="M159.43 56.9276C158.267 56.7675 157.089 56.751 155.922 56.8784C155.38 56.8784 154.847 56.8784 154.7 56.5433C154.565 55.994 154.599 55.4169 154.798 54.8875L155.695 50.5509C156.937 44.3713 157.735 39.335 157.479 39.2857C157.223 39.2365 156.03 44.2136 154.798 50.3735C154.502 51.9012 154.226 53.3303 153.96 54.7397C153.732 55.4426 153.76 56.2039 154.039 56.8882C154.145 57.0615 154.288 57.2084 154.459 57.3178C154.63 57.4271 154.823 57.4959 155.025 57.519C155.336 57.5596 155.65 57.5596 155.961 57.519C157.137 57.4648 158.303 57.2662 159.43 56.9276Z" fill="#263238"/>
<path d="M163.895 31.608C164.171 32.1008 165.975 31.539 168.192 31.4503C170.41 31.3616 172.263 31.677 172.48 31.1645C172.568 30.9181 172.184 30.4845 171.386 30.1001C170.35 29.6236 169.212 29.4136 168.074 29.489C166.935 29.5489 165.829 29.8873 164.851 30.4746C164.112 30.8984 163.777 31.3715 163.895 31.608Z" fill="#263238"/>
<path d="M142.439 37.8862C142.715 38.2804 144.469 37.6496 146.638 37.3835C148.806 37.1174 150.639 37.2258 150.836 36.7725C150.915 36.5556 150.521 36.2205 149.732 35.9544C148.671 35.6441 147.555 35.5634 146.46 35.7179C145.355 35.8598 144.291 36.2289 143.336 36.802C142.617 37.2653 142.311 37.6989 142.439 37.8862Z" fill="#263238"/>
<path d="M187.874 43.5434C188.091 43.3956 196.794 39.2069 198.046 48.5896C199.297 57.9724 189.619 57.2923 189.57 57.0262C189.52 56.7601 187.874 43.5434 187.874 43.5434Z" fill="#FFBE9D"/>
<path d="M191.955 53.0938C191.955 53.0938 192.142 53.1825 192.428 53.2712C192.841 53.3854 193.282 53.336 193.66 53.1332C194.645 52.6404 195.227 50.955 195.04 49.2598C194.958 48.4496 194.696 47.668 194.271 46.9733C194.144 46.6917 193.95 46.4455 193.706 46.2564C193.462 46.0674 193.176 45.9412 192.871 45.8892C192.678 45.8639 192.483 45.9074 192.319 46.0119C192.155 46.1164 192.033 46.2753 191.974 46.4608C191.876 46.7368 191.974 46.924 191.915 46.9437C191.856 46.9634 191.689 46.8156 191.718 46.4115C191.734 46.1736 191.836 45.9495 192.004 45.7807C192.238 45.5495 192.552 45.4187 192.881 45.4161C193.277 45.4431 193.659 45.5704 193.992 45.7859C194.324 46.0014 194.597 46.2981 194.783 46.6481C195.293 47.4041 195.607 48.2741 195.7 49.181C195.887 51.0832 195.158 52.9853 193.857 53.557C193.615 53.6638 193.352 53.7149 193.087 53.7064C192.823 53.6978 192.564 53.6299 192.329 53.5077C192.004 53.3204 191.896 53.1135 191.955 53.0938Z" fill="#EB996E"/>
<path d="M162.259 63.2058C162.131 62.9791 163.925 62.2202 165.068 60.3969C165.535 59.5892 165.896 58.7246 166.142 57.8245C166.349 57.1149 166.517 56.6615 166.625 56.6812C166.734 56.7009 166.744 57.174 166.625 57.9329C166.508 58.949 166.172 59.9275 165.64 60.8009C165.098 61.6809 164.324 62.3938 163.402 62.8608C162.772 63.2156 162.328 63.2846 162.259 63.2058Z" fill="#263238"/>
<path d="M198.992 27.1335C196.715 23.9894 195.897 20.0668 194.478 16.4596C193.058 12.8524 190.644 9.20572 186.889 8.23985L186.81 8.28913C183.429 7.30355 179.408 7.62878 176.954 10.142C175.84 5.30281 171.188 1.8237 166.29 1.01553C161.392 0.207349 153.803 1.65615 149.387 3.97227C145.977 5.72661 142.823 8.95932 139.058 13.6408C137.462 15.6088 136.032 17.7054 134.781 19.9091L131.824 33.1258L136.003 39.5222C136.257 39.9696 136.533 40.4038 136.831 40.8232L141.345 54.71C141.197 50.8269 139.67 37.4032 139.522 33.5102C142.422 33.1553 145.22 32.2181 147.748 30.7548C150.277 29.2915 152.484 27.3322 154.236 24.9947C156.129 22.4618 157.518 19.3769 160.219 17.7211C163.688 15.5824 168.104 16.4892 172.115 17.4748L171.937 17.3368C174.027 18.0802 175.954 19.2178 177.614 20.6878C177.461 28.3993 178.97 36.0536 182.04 43.1295C182.503 44.1939 183.686 46.3622 184.809 46.6874C186.997 47.3083 187.372 45.1006 188.535 43.8391C189.392 42.9126 190.772 42.6662 192.3 42.5381C193.054 39.236 193.614 35.8924 193.975 32.5246C195.28 32.7935 196.629 32.7564 197.917 32.4162L196.429 29.6171C196.968 29.9421 197.569 30.1502 198.193 30.2282C198.519 30.269 198.849 30.2039 199.135 30.0423C199.421 29.8808 199.647 29.6315 199.78 29.3313C200.027 28.5724 199.465 27.7938 198.992 27.1335Z" fill="#263238"/>
<path d="M172.755 12.1132C173.281 12.4554 173.781 12.8342 174.253 13.2466C175.459 14.4586 176.328 15.9632 176.777 17.6128C177.119 18.7401 177.347 19.8991 177.457 21.0722C177.575 22.3436 177.595 23.7037 177.634 25.1426C177.645 26.6524 177.75 28.16 177.949 29.6566C178.067 30.45 178.242 31.2339 178.472 32.0023C178.671 32.8298 179.078 33.593 179.654 34.2198C179.915 34.4603 180.233 34.63 180.578 34.7128C180.924 34.7956 181.284 34.7888 181.626 34.6929C182.289 34.5069 182.872 34.1045 183.281 33.5496C183.928 32.4539 184.268 31.2047 184.267 29.9325L183.991 29.9917C184.512 30.9924 185.176 31.912 185.962 32.7217C186.709 33.4695 187.715 33.9002 188.771 33.9242C189.26 33.9278 189.74 33.7983 190.161 33.5496C190.549 33.2995 190.855 32.9392 191.038 32.5148C191.208 32.1208 191.269 31.6887 191.215 31.2631C191.153 30.8822 190.961 30.5343 190.673 30.2775L190.545 30.4253C191.68 31.5287 193.1 32.2934 194.645 32.633C194.754 32.6669 194.867 32.6835 194.98 32.6823C194.878 32.6404 194.773 32.6074 194.665 32.5838C194.448 32.5148 194.133 32.4261 193.738 32.2684C192.599 31.8217 191.56 31.1515 190.683 30.2972L190.545 30.4451C190.797 30.7123 190.96 31.0511 191.011 31.4147C191.062 31.7784 190.999 32.149 190.831 32.4754C190.663 32.8542 190.385 33.1737 190.033 33.3919C189.651 33.6183 189.215 33.7343 188.771 33.727C187.786 33.6883 186.852 33.276 186.159 32.5739C185.411 31.7778 184.78 30.8783 184.287 29.903L184.05 29.4792V29.9621C184.029 31.1814 183.689 32.374 183.065 33.4215C182.689 33.8993 182.171 34.2446 181.586 34.4071C181.291 34.4931 180.979 34.5011 180.68 34.4303C180.381 34.3594 180.106 34.2122 179.881 34.003C179.35 33.4147 178.974 32.7033 178.787 31.9333C178.557 31.1783 178.382 30.4075 178.265 29.627C178.067 28.1434 177.958 26.6492 177.94 25.1525C177.94 23.7135 177.861 22.3534 177.733 21.0722C177.609 19.881 177.364 18.7054 177.003 17.5635C176.523 15.8904 175.605 14.3761 174.342 13.1777C173.877 12.7359 173.341 12.376 172.755 12.1132Z" fill="#455A64"/>
<path d="M131.489 29.4101L131.607 29.489L131.972 29.7058C132.168 29.8287 132.372 29.9374 132.583 30.031C132.839 30.1395 133.125 30.2873 133.46 30.3957C135.382 31.0557 137.437 31.2317 139.443 30.9082C142.427 30.4326 145.209 29.1046 147.456 27.0841C150.156 24.5908 152.319 21.5725 153.813 18.2139C154.66 16.4596 155.321 14.6757 156.07 13.0199C156.744 11.4082 157.65 9.90398 158.76 8.55519C159.75 7.32949 161.035 6.3763 162.496 5.78571C163.155 5.5345 163.85 5.38817 164.555 5.35205C165.218 5.32615 165.881 5.38913 166.527 5.53931C168.477 6.00878 170.178 7.19888 171.287 8.87058C171.659 9.49197 171.96 10.1532 172.184 10.8417C172.19 10.796 172.19 10.7495 172.184 10.7038C172.184 10.5855 172.125 10.4574 172.085 10.2898C171.928 9.76034 171.703 9.25348 171.415 8.78188C170.957 8.03146 170.373 7.36483 169.69 6.81072C168.786 6.08076 167.733 5.55615 166.605 5.2732C165.23 4.91852 163.78 4.99071 162.446 5.48018C160.941 6.08308 159.612 7.05597 158.583 8.3088C157.452 9.67599 156.526 11.1998 155.833 12.8326C155.074 14.5081 154.414 16.2822 153.576 18.0266C152.093 21.3424 149.962 24.3282 147.308 26.8082C145.099 28.8104 142.363 30.1375 139.423 30.6322C137.447 30.9741 135.418 30.832 133.51 30.2183C132.169 29.8142 131.509 29.3313 131.489 29.4101Z" fill="#455A64"/>
<path d="M142.823 43.1295C143.119 43.3857 144.588 41.9566 146.884 41.6905C149.18 41.4244 151.004 42.3804 151.211 42.0651C151.319 41.9172 150.994 41.4441 150.225 40.9809C149.154 40.3992 147.925 40.1715 146.716 40.3304C145.518 40.4713 144.398 40.9969 143.523 41.8285C142.853 42.4889 142.676 43.0408 142.823 43.1295Z" fill="#263238"/>
<path d="M144.775 47.4069C144.848 47.8899 145.108 48.3249 145.499 48.618C145.89 48.9111 146.38 49.039 146.864 48.974C147.101 48.9531 147.331 48.8852 147.541 48.7743C147.751 48.6634 147.936 48.5117 148.087 48.3282C148.237 48.1446 148.35 47.9328 148.417 47.7052C148.485 47.4776 148.507 47.2388 148.481 47.0028C148.405 46.5229 148.146 46.0911 147.758 45.7987C147.37 45.5063 146.883 45.3761 146.401 45.4358C146.164 45.4567 145.934 45.5245 145.724 45.6353C145.513 45.7461 145.327 45.8976 145.176 46.081C145.024 46.2644 144.911 46.4761 144.842 46.7038C144.773 46.9314 144.751 47.1704 144.775 47.4069Z" fill="#263238"/>
<path d="M135.717 18.1647C134.732 19.8303 133.066 21.427 131.124 21.427C130.413 21.3525 129.708 21.224 129.015 21.0426C128.385 21.5157 128.779 23.8022 129.311 24.3837C129.804 24.8758 130.338 25.3243 130.908 25.7241C128.779 27.1729 126.66 26.7886 124.166 26.1676C124.621 28.1929 125.598 30.0637 127 31.594C128.403 33.1243 130.181 34.2606 132.159 34.89C132.774 35.1412 133.439 35.2427 134.101 35.1861C134.762 35.1296 135.401 34.9166 135.964 34.5648C136.783 33.7213 137.264 32.6057 137.314 31.4306C137.964 27.1912 138.087 22.8876 137.679 18.6181L135.717 18.1647Z" fill="#263238"/>
<path d="M161.175 95.9567C161.175 95.9567 152.502 99.4753 147.564 111.48C144.095 119.916 124.797 146.547 124.797 146.547L73.4877 157.94L71.7334 174.311L153.803 173.63L165.206 137.312L161.175 95.9567Z" fill="#FFB3E9"/>
<path d="M195.729 80.8279L204.836 84.652C213.263 88.1804 224.045 96.3114 227.662 104.709C236.345 124.933 244.21 150.923 247.226 173.916C250.271 197.107 244.21 231.425 244.21 231.425L167.197 187.419L171.701 184.275L157.104 104.876L159.825 95.2667L158.011 87.1357C158.011 87.1357 178.442 78.9356 193.325 73.0517L195.729 80.8279Z" fill="#FFB3E9"/>
<g opacity="0.3">
<path d="M203.082 208.481C202.799 204.538 202.517 200.573 202.234 196.585C203.137 197.445 204.32 197.952 205.565 198.014C203.639 196.175 201.929 194.121 200.47 191.893L203.979 193.401C202.741 192.449 201.731 191.234 201.022 189.843C202.904 188.375 205.556 188.621 207.921 188.858C220.093 190.09 232.373 189.272 244.595 188.454C245.819 188.384 247.013 188.047 248.093 187.468C248.093 187.468 248.34 184.117 247.798 182.865C247.256 181.614 246.408 181.978 245.127 181.515C243.826 181.12 242.475 180.914 241.115 180.904C226.243 180.116 211.341 181.338 196.498 182.57C195.573 182.556 194.664 182.816 193.886 183.319C192.674 184.304 192.782 186.157 192.989 187.705C193.752 193.263 194.507 198.819 195.256 204.371" fill="black"/>
</g>
<path d="M158.011 101.683C158.012 101.934 158.035 102.185 158.08 102.432L158.396 104.551C158.672 106.384 159.115 109.045 159.697 112.317C160.86 118.872 162.604 127.89 164.624 137.824C166.645 147.759 168.695 156.738 170.163 163.223C170.903 166.426 171.504 169.038 171.938 170.9C172.144 171.768 172.312 172.458 172.44 172.98C172.486 173.227 172.559 173.468 172.657 173.699C172.631 173.451 172.592 173.204 172.539 172.96C172.44 172.428 172.302 171.728 172.125 170.861C171.74 168.979 171.139 166.367 170.518 163.144L165.176 137.745C163.107 127.811 161.303 118.803 160.051 112.268C159.45 109.045 158.948 106.414 158.593 104.531C158.425 103.664 158.287 102.964 158.189 102.432C158.155 102.177 158.095 101.926 158.011 101.683Z" fill="#263238"/>
<path d="M227.663 214.404C227.525 214.234 227.369 214.079 227.199 213.941L225.819 212.669C225.228 212.117 224.479 211.457 223.582 210.698C222.685 209.939 221.7 209.092 220.537 208.215C218.26 206.391 215.451 204.351 212.248 202.212C209.045 200.074 205.349 197.905 201.476 195.816C197.602 193.726 193.67 191.992 190.102 190.523C186.534 189.055 183.262 187.921 180.473 187.074C179.093 186.611 177.812 186.275 176.698 185.96C175.584 185.645 174.618 185.398 173.83 185.211L171.997 184.797C171.789 184.731 171.574 184.691 171.356 184.679C171.555 184.772 171.763 184.845 171.977 184.896L173.781 185.408C174.559 185.625 175.515 185.891 176.619 186.236C177.723 186.581 178.985 186.936 180.364 187.419C183.124 188.316 186.376 189.508 189.925 190.967C193.473 192.426 197.307 194.209 201.229 196.269C205.152 198.329 208.769 200.517 211.992 202.607C215.215 204.696 218.024 206.726 220.32 208.52C221.493 209.378 222.498 210.225 223.405 210.935C224.312 211.644 225.07 212.295 225.691 212.817L227.13 214.01C227.293 214.16 227.472 214.292 227.663 214.404Z" fill="#263238"/>
<path d="M188.131 185.339C188.062 185.467 195.552 189.676 204.886 194.742C214.219 199.807 221.788 203.819 221.857 203.691C221.926 203.563 214.436 199.364 205.102 194.288C195.769 189.212 188.2 185.221 188.131 185.339Z" fill="#263238"/>
<g opacity="0.3">
<path d="M215.195 124.509C210.415 145.206 195.798 163.676 176.343 172.103C190.339 157.121 203.319 141.221 215.195 124.509Z" fill="black"/>
</g>
<g opacity="0.3">
<path d="M159.233 108.779C157.351 117.531 158.75 128.491 163.176 136.247L164.27 133.98C162.722 127.407 160.505 115.747 159.273 108.779" fill="black"/>
</g>
<path d="M170.43 186.778C170.43 186.778 102.355 204.519 93.8991 216.257C86.7635 226.221 124.235 327.963 124.235 327.963L153.803 325.41L141.049 240.276L217.324 216.03L205.802 186.739L170.43 186.778Z" fill="#263238"/>
<path d="M165.551 202.725C165.551 202.725 95.9589 219.628 88.9218 231.642C85.6398 237.25 87.7982 255.66 89.0204 264.353C89.8483 270.208 102.148 352.129 102.148 352.129H132.238L131.578 259.603L203.88 245.026C203.88 245.026 242.692 247.983 244.21 231.425L228.007 209.466L189.767 190.573L165.551 202.725Z" fill="#263238"/>
<path d="M170.853 200.596C170.853 200.596 170.508 200.675 169.868 200.862L166.911 201.68L155.557 204.854C150.629 206.233 144.597 207.919 137.629 209.989C130.661 212.058 122.767 214.562 114.202 217.804C109.912 219.407 105.483 221.234 100.916 223.284L97.4669 224.841C96.3046 225.409 95.1729 226.037 94.0765 226.724C92.9551 227.426 91.8966 228.224 90.9128 229.109C89.8904 230.008 89.0332 231.078 88.3799 232.273C86.0342 242.937 87.4534 254.596 89.1979 266.512C89.9568 272.514 90.9325 278.634 91.8491 284.893C92.7657 291.151 93.7414 297.558 94.7171 304.062C96.6883 317.082 98.6595 330.565 100.749 344.363C101.143 346.975 101.528 349.577 101.922 352.159V352.385H132.475V352.129C132.209 317.062 131.962 285.307 131.765 259.613L131.607 259.8L183.025 249.343L197.05 246.465L200.697 245.706C201.525 245.529 201.939 245.42 201.939 245.42L200.687 245.647L197.021 246.357L182.937 249.116L131.538 259.386H131.381V259.553C131.548 285.248 131.755 317.003 131.982 352.08L132.238 351.824H102.158L102.405 352.041C102.02 349.448 101.626 346.856 101.242 344.245L95.2001 303.944C94.2145 297.426 93.2552 291.036 92.3222 284.775C91.3957 278.516 90.4102 272.396 89.6414 266.393C89.234 263.397 88.8365 260.44 88.4488 257.523C88.034 254.652 87.7774 251.76 87.6801 248.86C87.5815 246.002 87.5815 243.186 87.6801 240.413C87.7392 239.024 87.8181 237.654 87.9363 236.294C87.9477 234.96 88.2189 233.641 88.7347 232.411C89.3613 231.26 90.1853 230.23 91.1691 229.365C92.1304 228.498 93.1659 227.716 94.2638 227.029C95.3446 226.342 96.4634 225.717 97.6148 225.157L101.045 223.59C105.598 221.549 110.023 219.706 114.301 218.1C122.846 214.838 130.74 212.344 137.689 210.215C144.637 208.086 150.669 206.411 155.587 205.001L166.921 201.808L169.878 200.941C170.518 200.714 170.853 200.596 170.853 200.596Z" fill="#455A64"/>
<path d="M74.4734 158.748C74.0298 158.078 68.2839 151.445 66.7365 151.445C65.1892 151.445 63.4151 153.219 63.4151 153.219C62.3803 152.744 61.2269 152.59 60.1036 152.775C58.773 153.219 52.5836 158.521 52.5836 160.512V163.834C52.4435 164.712 52.4435 165.607 52.5836 166.485C52.8004 168.032 56.5259 170.684 56.5259 170.684H77.7849C77.7849 170.684 81.8357 167.953 81.333 165.381C80.8304 162.809 74.4734 158.748 74.4734 158.748Z" fill="#FFCCB1"/>
<path d="M63.4152 153.219C62.9539 153.43 62.512 153.68 62.0945 153.968L58.5858 156.186C58.1804 156.421 57.7918 156.685 57.4228 156.974C57.0316 157.336 56.7369 157.79 56.5654 158.295C56.4308 158.829 56.3679 159.38 56.3781 159.931L56.2894 161.626C56.1712 163.942 56.0529 166.485 55.9248 169.146L55.8656 170.348V170.565L56.0726 170.615L57.3736 170.93H57.4327C58.0411 170.912 58.6264 170.693 59.0983 170.309C59.5329 169.948 59.8971 169.511 60.1726 169.018C60.6722 168.12 61.0469 167.159 61.2863 166.16C61.6999 164.49 61.9442 162.783 62.0157 161.064L61.8974 161.222L65.613 159.763C66.073 159.602 66.5182 159.4 66.9436 159.162C66.4659 159.259 65.9976 159.398 65.544 159.576L61.7791 160.887H61.6707V161.005C61.5567 162.696 61.2828 164.372 60.8527 166.012C60.611 166.963 60.2431 167.878 59.7587 168.732C59.5465 169.182 59.2219 169.57 58.8162 169.858C58.4106 170.147 57.9375 170.326 57.4425 170.378H57.5017L56.2007 170.053L56.3978 170.319L56.457 169.107C56.5654 166.446 56.6837 163.913 56.7822 161.587C56.7822 161.005 56.7822 160.443 56.8414 159.891C56.8314 159.378 56.8811 158.866 56.9892 158.364C57.1256 157.924 57.3734 157.527 57.7087 157.211C58.0587 156.928 58.4239 156.665 58.8027 156.422L62.2226 154.076C62.6438 153.825 63.0428 153.538 63.4152 153.219Z" fill="#EDB394"/>
<path d="M77.7847 169.925C77.3175 169.824 76.8428 169.761 76.3655 169.737L72.4922 169.432H72.433C70.9924 169.77 69.535 170.034 68.0669 170.22C67.2204 170.336 66.3682 170.405 65.5142 170.427C65.0995 170.495 64.6749 170.471 64.271 170.355C63.867 170.239 63.4938 170.035 63.1784 169.757C62.914 169.38 62.7855 168.925 62.8137 168.466C62.8137 167.983 62.8827 167.48 62.9024 166.968C62.959 166.55 63.1615 166.166 63.4741 165.884C63.7854 165.571 64.1406 165.305 64.5286 165.095C65.9349 164.387 67.5179 164.106 69.0821 164.287C69.6426 164.34 70.2075 164.258 70.7302 164.049C71.2529 163.84 71.7183 163.509 72.0881 163.085C72.5513 162.424 72.5119 161.941 72.4823 161.951C72.3523 162.307 72.1659 162.64 71.9304 162.937C71.5611 163.306 71.1129 163.586 70.6195 163.757C70.1261 163.928 69.6005 163.984 69.0821 163.922C67.4496 163.68 65.782 163.941 64.302 164.671C63.8722 164.9 63.4773 165.189 63.1291 165.529C62.7192 165.9 62.4596 166.408 62.3998 166.958C62.3998 167.411 62.3012 167.944 62.3012 168.456C62.2744 169.034 62.4447 169.604 62.7842 170.072C63.1278 170.47 63.5974 170.738 64.1147 170.831C64.5791 170.919 65.0524 170.948 65.5241 170.92C66.4308 170.92 67.2981 170.802 68.126 170.693C69.6107 170.48 71.0817 170.18 72.5316 169.796H72.4724L76.3458 169.934C76.8244 169.982 77.3068 169.979 77.7847 169.925Z" fill="#EDB394"/>
<path d="M56.1511 169.836C55.6584 168.518 55.0857 167.231 54.4362 165.982C53.9363 164.657 53.2742 163.399 52.4651 162.237C52.8045 163.605 53.3041 164.928 53.9533 166.179C54.4556 167.523 55.2006 168.762 56.1511 169.836Z" fill="#EDB394"/>
<path d="M102.208 174.32L25.6377 175.306L0.998161 106.177C0.734993 105.485 0.746658 104.719 1.03074 104.035C1.31481 103.352 1.84975 102.803 2.5258 102.501C2.88977 102.332 3.2849 102.241 3.68607 102.232C4.08726 102.224 4.48578 102.299 4.85639 102.453C5.22701 102.607 5.56164 102.836 5.83909 103.126C6.11654 103.416 6.33073 103.76 6.46813 104.137L30.7628 169.599L102.277 170.309C102.799 170.309 103.301 170.517 103.67 170.886C104.04 171.256 104.248 171.757 104.248 172.28C104.257 172.551 104.211 172.82 104.112 173.072C104.013 173.324 103.863 173.553 103.672 173.744C103.48 173.936 103.251 174.086 103 174.185C102.748 174.284 102.478 174.33 102.208 174.32Z" fill="#FDC83F"/>
<path d="M216.308 122.962C216.308 122.962 178.856 173.877 173.051 173.877H118.401V153.18L159.726 143.432C159.726 143.432 180.069 101.348 184.583 95.9567C189.097 90.5656 201.131 83.3018 210.129 91.423C219.127 99.5442 216.308 122.962 216.308 122.962Z" fill="#FFB3E9"/>
<path d="M118.44 155.22L109.481 154.5C109.481 154.5 109.294 151.179 107.333 150.006C105.371 148.833 105.578 146.29 104.376 146.487C103.725 146.616 103.055 146.616 102.405 146.487L94.9832 140.239L88.7248 136.139L83.7969 135.153C83.7969 135.153 80.8401 135.932 83.7969 138.662L86.931 140.426L89.6611 143.166L83.4125 140.091C83.1251 139.952 82.8101 139.88 82.491 139.88C82.1718 139.88 81.8568 139.952 81.5694 140.091C79.8786 140.821 78.267 141.723 76.7598 142.782C76.6249 142.908 76.5174 143.061 76.4439 143.23C76.3704 143.4 76.3325 143.582 76.3325 143.767C76.3325 143.952 76.3704 144.135 76.4439 144.304C76.5174 144.474 76.6249 144.627 76.7598 144.753L74.0297 147.099C74.0297 147.099 73.4384 150.233 76.5725 149.444L79.1055 148.863L82.4959 152.155C82.4959 152.155 71.1518 149.809 70.3732 150.183C69.5946 150.558 68.609 152.332 70.3732 153.889C72.1374 155.446 78.9774 155.062 80.5346 156.629C82.0918 158.196 92.4404 167.638 94.9832 168.22C97.526 168.801 118.381 173.896 118.381 173.896L118.44 155.22Z" fill="#FFCCB1"/>
<path d="M74.1086 147.069C74.6445 146.742 75.1581 146.38 75.6461 145.985C76.1094 145.64 76.6317 145.236 77.3019 144.802C77.6173 144.585 77.9458 144.368 78.2875 144.152C78.5943 143.924 78.9537 143.778 79.3322 143.728C80.1088 143.896 80.8474 144.206 81.5104 144.644C82.1806 145.009 82.7719 145.354 83.2745 145.63C83.7909 145.993 84.3463 146.297 84.9303 146.537C84.5167 146.059 84.0272 145.653 83.4815 145.334C82.9986 144.999 82.4171 144.615 81.7469 144.221C81.4118 144.024 81.057 143.826 80.6825 143.629C80.2754 143.394 79.8208 143.252 79.3519 143.215C79.2153 143.188 79.0746 143.188 78.938 143.215C78.8232 143.254 78.7113 143.3 78.6029 143.353C78.4027 143.45 78.2085 143.559 78.0214 143.679C77.6567 143.905 77.3216 144.132 77.0358 144.368C76.4149 144.822 75.8728 145.265 75.4293 145.65C74.5324 146.458 74.0495 147.02 74.1086 147.069Z" fill="#EDB394"/>
<path d="M101.557 145.729C101.478 145.847 102.405 146.655 103.528 147.7C104.652 148.744 105.5 149.612 105.608 149.503C105.192 148.664 104.605 147.922 103.883 147.325C103.251 146.61 102.452 146.062 101.557 145.729Z" fill="#EDB394"/>
<path d="M184.583 95.9567C183.779 96.9466 183.054 97.9978 182.414 99.1007C181.123 101.239 179.3 104.433 177.112 108.562C172.706 116.821 166.645 128.796 159.539 143.373L159.677 143.255L118.342 152.973H118.144V174.212H120.875H167.325H172.608C172.837 174.226 173.068 174.226 173.298 174.212C173.53 174.166 173.755 174.09 173.968 173.985C174.381 173.768 174.773 173.514 175.141 173.226C175.828 172.714 176.486 172.165 177.112 171.58C179.506 169.327 181.779 166.948 183.922 164.455C188.121 159.684 191.807 155.082 195.207 150.864C201.929 142.407 207.182 135.419 210.789 130.59L214.919 124.992C215.372 124.351 215.717 123.868 215.973 123.523C216.23 123.179 216.318 123.011 216.318 123.011C216.318 123.011 216.18 123.169 215.924 123.494L214.83 124.933L210.622 130.452C206.965 135.252 201.663 142.2 194.911 150.627C191.531 154.826 187.796 159.409 183.597 164.169C181.453 166.64 179.184 168.999 176.796 171.236C176.171 171.809 175.513 172.345 174.825 172.842C174.489 173.085 174.133 173.299 173.761 173.483C173.396 173.658 172.991 173.73 172.588 173.69H167.305H120.855H118.381L118.637 173.946C118.637 166.85 118.637 159.911 118.637 153.249L118.45 153.495L159.775 143.659H159.874L159.923 143.57C166.98 128.974 172.992 116.959 177.329 108.69C179.487 104.541 181.271 101.338 182.533 99.1796C183.173 98.1151 183.656 97.2872 184.04 96.7747C184.425 96.2622 184.583 95.9567 184.583 95.9567Z" fill="#263238"/>
<path d="M190.023 92.6254C190.023 92.7141 191.304 92.2016 193.394 91.7285C194.621 91.4564 195.866 91.2687 197.119 91.1668C198.651 91.0491 200.19 91.0491 201.722 91.1668C203.249 91.3272 204.762 91.6073 206.246 92.0045C207.459 92.3358 208.648 92.7507 209.804 93.2463C211.775 94.1038 212.898 94.8331 212.948 94.7543C212.725 94.5304 212.473 94.338 212.199 94.1826C211.48 93.7094 210.729 93.2878 209.951 92.9211C208.798 92.3662 207.601 91.9048 206.374 91.5413C204.869 91.1107 203.329 90.8172 201.771 90.6641C200.211 90.521 198.64 90.521 197.08 90.6641C195.806 90.7944 194.544 91.0218 193.305 91.3442C192.475 91.5612 191.661 91.8378 190.871 92.172C190.309 92.4086 190.003 92.586 190.023 92.6254Z" fill="#263238"/>
<path d="M167.256 152.884C166.646 151.116 165.698 149.482 164.467 148.074C163.371 146.555 161.988 145.266 160.396 144.28C160.298 144.398 162.19 146.014 164.072 148.39C165.955 150.765 167.108 152.953 167.256 152.884Z" fill="#263238"/>
<path d="M168.508 146.537C166.413 144.682 163.685 143.704 160.889 143.807C160.889 143.964 162.693 144.152 164.831 144.92C166.97 145.689 168.419 146.665 168.508 146.537Z" fill="#263238"/>
<path d="M133.392 252.822C134.18 251.176 136.092 250.457 137.837 249.865C172.263 238.768 209.203 233.445 244.792 239.911C249.069 240.689 253.485 241.705 256.885 244.425C260.285 247.145 262.325 252.073 260.512 256.015L253.209 258.361C216.767 254.304 179.974 254.562 143.592 259.13C141.138 259.445 138.556 259.751 136.289 258.785C134.022 257.819 132.317 255.03 133.392 252.822Z" fill="#E7F0FC"/>
<path d="M173.337 241.438C173.415 241.453 173.495 241.453 173.574 241.438L174.234 241.35L176.787 240.975C178.994 240.62 182.197 240.108 186.179 239.655C196.533 238.431 206.96 237.933 217.383 238.166C220.428 238.226 223.405 238.373 226.253 238.61C229.101 238.846 231.881 238.984 234.532 239.221C234.86 239.248 235.189 239.248 235.517 239.221C235.826 239.192 236.136 239.192 236.444 239.221C237.068 239.264 237.687 239.356 238.297 239.497L241.865 240.246C244.161 240.758 246.27 241.32 248.172 241.951C251.177 242.887 254.046 244.213 256.707 245.893C257.693 246.495 258.344 247.017 258.807 247.382L259.339 247.786C259.457 247.874 259.526 247.924 259.536 247.914L259.378 247.746L258.876 247.303C258.22 246.738 257.532 246.211 256.816 245.726C254.176 243.956 251.303 242.56 248.281 241.576C246.206 240.879 244.098 240.287 241.963 239.802L238.385 239.034C237.739 238.871 237.079 238.769 236.414 238.728C236.086 238.7 235.757 238.7 235.429 238.728C235.101 238.766 234.771 238.766 234.443 238.728C231.831 238.482 229.032 238.314 226.164 238.088C223.296 237.861 220.251 237.693 217.294 237.634C206.88 237.397 196.463 237.94 186.13 239.26C182.188 239.763 178.955 240.335 176.757 240.749L174.214 241.222L173.564 241.36L173.337 241.438Z" fill="#263238"/>
<path d="M259.615 185.339L200.934 187.389C200.729 187.397 200.529 187.447 200.345 187.537C200.161 187.628 199.999 187.755 199.868 187.912C199.737 188.069 199.64 188.252 199.584 188.449C199.528 188.646 199.515 188.852 199.544 189.055L207.99 259.425H194.764L187.944 181.959C187.867 181.334 187.921 180.699 188.102 180.096C188.283 179.493 188.588 178.934 188.996 178.455C189.405 177.976 189.909 177.587 190.476 177.313C191.043 177.039 191.661 176.886 192.29 176.863L261.192 174.399L259.615 185.339Z" fill="#E7F0FC"/>
</svg>
